<?xml version="1.0" encoding="utf-8"?>
<!-- Generator: Adobe Illustrator 19.0.0, SVG Export Plug-In . SVG Version: 6.00 Build 0)  -->
<svg version="1.1" id="Layer_1" xmlns="http://www.w3.org/2000/svg" xmlns:xlink="http://www.w3.org/1999/xlink" x="0px" y="0px"
	 viewBox="0 0 714 315.7" style="enable-background:new 0 0 714 315.7;" xml:space="preserve">
<style type="text/css">
	.st0{fill:#ADCA37;}
	.st1{fill:#6D6E71;}
</style>
<g>
	<g>
		<g>
			<path d="M133,135.8h56.4v11.3h-42.9v34.8h39.6v11.2h-39.6v47.4H133V135.8z"/>
		</g>
		<g>
			<path d="M208.6,137.2c6.8-1.4,16.6-2.2,25.9-2.2c14.5,0,23.8,2.6,30.3,8.5c5.3,4.7,8.2,11.8,8.2,19.9c0,13.8-8.7,23-19.7,26.7
				v0.5c8.1,2.8,12.9,10.3,15.4,21.1c3.4,14.6,5.9,24.7,8.1,28.7h-14c-1.7-3-4-12-7-25c-3.1-14.4-8.7-19.9-21-20.4h-12.7v45.4h-13.5
				V137.2z M222.2,184.9H236c14.5,0,23.6-7.9,23.6-19.9c0-13.5-9.8-19.4-24.1-19.6c-6.5,0-11.2,0.6-13.4,1.2V184.9z"/>
		</g>
		<g>
			<path d="M305.7,135.8v104.7h-13.5V135.8H305.7z"/>
		</g>
		<g>
			<path d="M383.6,191.4h-40.7v37.8h45.4v11.3h-58.9V135.8h56.6v11.3h-43v33.1h40.7V191.4z"/>
		</g>
		<g>
			<path d="M403.9,224c6.1,3.7,14.9,6.8,24.2,6.8c13.8,0,21.9-7.3,21.9-17.9c0-9.8-5.6-15.4-19.7-20.8
				c-17.1-6.1-27.7-14.9-27.7-29.7c0-16.3,13.5-28.4,33.9-28.4c10.7,0,18.5,2.5,23.1,5.1l-3.7,11c-3.4-1.9-10.4-5-19.9-5
				c-14.3,0-19.7,8.5-19.7,15.7c0,9.8,6.4,14.6,20.8,20.2c17.7,6.8,26.7,15.4,26.7,30.8c0,16.2-12,30.1-36.7,30.1
				c-10.1,0-21.1-3-26.7-6.7L403.9,224z"/>
		</g>
		<g>
			<path d="M480.5,224c6.1,3.7,14.9,6.8,24.2,6.8c13.8,0,21.9-7.3,21.9-17.9c0-9.8-5.6-15.4-19.7-20.8
				c-17.1-6.1-27.7-14.9-27.7-29.7c0-16.3,13.5-28.4,33.9-28.4c10.7,0,18.5,2.5,23.2,5.1l-3.7,11c-3.4-1.9-10.4-5-19.9-5
				c-14.3,0-19.7,8.5-19.7,15.7c0,9.8,6.4,14.6,20.8,20.2c17.7,6.8,26.7,15.4,26.7,30.8c0,16.2-12,30.1-36.7,30.1
				c-10.1,0-21.1-3-26.7-6.7L480.5,224z"/>
		</g>
		<g>
			<path d="M613.2,191.4h-40.7v37.8h45.4v11.3H559V135.8h56.6v11.3h-43v33.1h40.7V191.4z"/>
		</g>
		<g>
			<path d="M635.4,240.5V135.8h14.8l33.6,53c7.8,12.3,13.8,23.3,18.8,34l0.3-0.2c-1.2-14-1.6-26.7-1.6-43v-43.8H714v104.7h-13.7
				l-33.2-53.1c-7.3-11.7-14.3-23.6-19.6-35l-0.5,0.2c0.8,13.2,1.1,25.8,1.1,43.2v44.7H635.4z"/>
		</g>
	</g>
	<g>
		<path class="st0" d="M0,0v124.2h124.2V0H0z M102.3,102.3H21.9V21.9h80.4V102.3z"/>
	</g>
	<g>
		<path class="st1" d="M328.6,267.2c1.7-0.4,3.8-0.7,6.3-0.7c3.5,0,6.5,0.8,8.4,2.8c1.8,1.8,2.8,4.5,2.8,7.9c0,3.5-0.8,5.8-2.3,7.8
			c-2,2.8-5.6,4.2-8.9,4.2c-0.7,0-1.3,0-1.9-0.1v15.5h-4.3V267.2z M332.9,285.4c0.5,0.1,1,0.1,1.7,0.1c4.2,0,7.1-2.8,7.1-8.1
			c0-3.9-1.6-7.4-6.4-7.4c-1,0-1.9,0.1-2.4,0.3V285.4z"/>
		<path class="st1" d="M352.4,273.1c-1.4,0-2.5-1.1-2.5-2.8c0-1.7,1.1-2.8,2.5-2.8c1.6,0,2.6,1.1,2.6,2.8
			C355,272,354,273.1,352.4,273.1L352.4,273.1z M350.4,304.5v-27.2h4.3v27.2H350.4z"/>
		<path class="st1" d="M360,300c1,0.6,2.6,1.4,4.4,1.4c2.4,0,4-1.5,4-3.9c0-2.1-0.7-3.5-3.5-5.3c-3.5-2.3-5.4-4.7-5.4-7.8
			c0-4.4,3.3-7.5,7.5-7.5c2.1,0,3.7,0.7,4.8,1.4l-1.1,3.3c-1.1-0.7-2.2-1.2-3.6-1.2c-2.3,0-3.5,1.7-3.5,3.5c0,1.8,0.7,2.9,3.4,4.7
			c3.1,2,5.6,4.5,5.6,8.3c0,5.4-3.7,8.1-8.2,8.1c-2,0-4.2-0.6-5.3-1.6L360,300z"/>
		<path class="st1" d="M384.6,304.9c-4.9,0-8.8-4.4-8.8-14c0-9.9,4.4-14.1,9.1-14.1c4.9,0,8.8,4.5,8.8,14
			C393.6,301.4,388.8,304.9,384.6,304.9L384.6,304.9z M384.8,301.5c3.7,0,4.5-6.3,4.5-10.6c0-4.2-0.8-10.6-4.6-10.6
			c-3.9,0-4.6,6.4-4.6,10.6C380.1,295.4,380.9,301.5,384.8,301.5L384.8,301.5z"/>
		<path class="st1" d="M397.7,300c1,0.6,2.6,1.4,4.4,1.4c2.4,0,4-1.5,4-3.9c0-2.1-0.7-3.5-3.5-5.3c-3.5-2.3-5.4-4.7-5.4-7.8
			c0-4.4,3.3-7.5,7.5-7.5c2.1,0,3.7,0.7,4.8,1.4l-1.1,3.3c-1.1-0.7-2.2-1.2-3.6-1.2c-2.3,0-3.5,1.7-3.5,3.5c0,1.8,0.7,2.9,3.4,4.7
			c3.1,2,5.6,4.5,5.6,8.3c0,5.4-3.7,8.1-8.2,8.1c-2,0-4.2-0.6-5.3-1.6L397.7,300z"/>
		<path class="st1" d="M416.5,304.9c-1.6,0-2.8-1.3-2.8-3.3c0-1.9,1.3-3.3,2.9-3.3c1.7,0,2.9,1.3,2.9,3.3
			C419.4,303.6,418.4,304.9,416.5,304.9L416.5,304.9z"/>
		<path class="st1" d="M434,267.2c1.8-0.4,3.9-0.7,6.3-0.7c3.4,0,6.3,0.7,8.4,2.6c1.6,1.6,2.5,3.8,2.5,6.5c0,3.9-2.1,7-5.8,8.4v0.2
			c4.4,1.1,7,4.7,7,9.7c0,3.1-1,5.6-2.7,7.5c-2.1,2.4-5.7,3.4-10,3.4c-2.8,0-4.5-0.2-5.7-0.4V267.2z M438.4,282.7h2
			c3.5,0,6.6-2.8,6.6-6.7c0-3.5-1.6-6.2-6.2-6.2c-1,0-1.8,0.1-2.3,0.3V282.7z M438.4,301.1c0.5,0.1,1.2,0.2,2.2,0.2
			c4.4,0,7.4-2.6,7.4-7.5c0-5.2-3.6-7.7-7.6-7.8h-1.9V301.1z"/>
		<path class="st1" d="M471.7,298.3c0,2.1,0,4.4,0.3,6.2h-3.9l-0.3-2.9h-0.2c-1.2,2.1-3.1,3.3-5.4,3.3c-3.7,0-6.5-3-6.5-7.8
			c0-6.9,5.4-9.8,11.6-9.9v-0.8c0-3.7-0.9-6.2-4.3-6.2c-1.7,0-3.2,0.5-4.5,1.4l-1-3c1.2-0.8,3.7-1.8,6.3-1.8c5.4,0,7.8,3.6,7.8,9.7
			V298.3z M467.5,290.4c-2.2,0-7.5,0.5-7.5,6.3c0,3.6,1.8,4.8,3.3,4.8c1.9,0,3.5-1.4,4-4.1c0.1-0.5,0.2-1.1,0.2-1.6V290.4z"/>
		<path class="st1" d="M477.9,284.3c0-3.2-0.2-4.8-0.2-7h3.8l0.2,3.3h0.1c1.2-2.2,3.4-3.7,6.2-3.7c3.8,0,6.6,2.8,6.6,9.4v18.3h-4.3
			V287c0-3.3-0.6-6.5-3.8-6.5c-1.8,0-3.5,1.5-4,4.4c-0.2,0.6-0.2,1.5-0.2,2.4v17.1h-4.3V284.3z M480.2,273c-0.1-3,1.2-5.3,3.5-5.3
			c1.2,0,2,0.5,2.8,1c0.8,0.4,1.5,1,2.3,1c0.8,0,1.3-0.4,1.4-2h2.3c0,3.1-1.1,5-3.5,5c-1,0-2-0.5-2.8-1c-0.8-0.4-1.4-1-2.1-1
			c-0.8,0-1.2,0.8-1.3,2.2H480.2z"/>
		<path class="st1" d="M508.3,304.9c-4.9,0-8.8-4.4-8.8-14c0-9.9,4.4-14.1,9.1-14.1c4.9,0,8.8,4.5,8.8,14
			C517.3,301.4,512.5,304.9,508.3,304.9L508.3,304.9z M508.5,301.5c3.7,0,4.5-6.3,4.5-10.6c0-4.2-0.8-10.6-4.6-10.6
			c-3.9,0-4.6,6.4-4.6,10.6C503.8,295.4,504.6,301.5,508.5,301.5L508.5,301.5z"/>
		<path class="st1" d="M521.4,300c1,0.6,2.6,1.4,4.4,1.4c2.4,0,4-1.5,4-3.9c0-2.1-0.7-3.5-3.5-5.3c-3.5-2.3-5.4-4.7-5.4-7.8
			c0-4.4,3.3-7.5,7.5-7.5c2.1,0,3.7,0.7,4.8,1.4l-1.1,3.3c-1.1-0.7-2.2-1.2-3.6-1.2c-2.3,0-3.5,1.7-3.5,3.5c0,1.8,0.7,2.9,3.4,4.7
			c3.1,2,5.6,4.5,5.6,8.3c0,5.4-3.7,8.1-8.2,8.1c-2,0-4.2-0.6-5.3-1.6L521.4,300z"/>
		<path class="st1" d="M540.2,304.9c-1.6,0-2.8-1.3-2.8-3.3c0-1.9,1.3-3.3,2.9-3.3c1.7,0,2.9,1.3,2.9,3.3
			C543.1,303.6,542.1,304.9,540.2,304.9L540.2,304.9z"/>
		<path class="st1" d="M562.3,293.1l-2.5,11.3h-4.2l8.7-37.9h4.8l8.4,37.9h-4.3l-2.5-11.3H562.3z M570.1,289.7l-2-9.6
			c-0.6-2.7-1.1-5.8-1.5-8.7h-0.2c-0.5,2.9-1,6.1-1.6,8.7l-2,9.6H570.1z"/>
		<path class="st1" d="M580.3,301.8l8.6-16.9c0.7-1.3,1.6-2.8,2.2-4v-0.1h-9.7v-3.6h14.5v2.9l-8.5,16.6c-0.7,1.3-1.6,2.8-2.2,4v0.1
			h10.7v3.6h-15.6V301.8z"/>
		<path class="st1" d="M616.3,297.1c0,3,0.2,5.4,0.2,7.4h-3.8l-0.3-2.9h-0.1c-0.8,1.3-2.9,3.3-5.8,3.3c-4.7,0-6.6-3.7-6.6-10.4
			v-17.2h4.3v16.6c0,4.2,0.7,7.4,3.7,7.4c2.5,0,3.6-2.4,3.9-3.7c0.2-0.7,0.2-1.5,0.2-2.4v-17.9h4.3V297.1z"/>
		<path class="st1" d="M622.4,265.6h4.3v38.9h-4.3V265.6z"/>
		<path class="st1" d="M636.1,291.3c0.1,8.4,3.3,10.1,6.4,10.1c1.9,0,3.4-0.4,4.5-1l0.7,3.1c-1.5,0.8-3.8,1.3-6,1.3
			c-6.5,0-9.8-5.3-9.8-13.7c0-8.8,3.7-14.3,9.2-14.3c5.5,0,7.8,5.8,7.8,12c0,1.1-0.1,1.8-0.1,2.5H636.1z M644.7,288.1
			c0.1-5.4-2-7.9-4-7.9c-2.8,0-4.3,4.2-4.4,7.9H644.7z"/>
		<path class="st1" d="M648.9,312.3c1.2-0.3,2.8-0.8,3.7-2.1c1-1.5,1.3-3.5,1.3-8.7v-24.3h4.3v25.4c0,5.7-0.8,8.4-2.7,10.4
			c-1.6,1.6-4.3,2.5-6,2.5L648.9,312.3z M656,273.1c-1.5,0-2.5-1.1-2.5-2.8c0-1.7,1.1-2.8,2.6-2.8c1.5,0,2.5,1.1,2.5,2.8
			C658.6,272,657.6,273.1,656,273.1L656,273.1z"/>
		<path class="st1" d="M671.7,304.9c-4.9,0-8.8-4.4-8.8-14c0-9.9,4.4-14.1,9.1-14.1c4.9,0,8.8,4.5,8.8,14
			C680.8,301.4,675.9,304.9,671.7,304.9L671.7,304.9z M671.9,301.5c3.7,0,4.5-6.3,4.5-10.6c0-4.2-0.8-10.6-4.6-10.6
			c-3.9,0-4.6,6.4-4.6,10.6C667.2,295.4,668,301.5,671.9,301.5L671.9,301.5z"/>
		<path class="st1" d="M684.9,300c1,0.6,2.6,1.4,4.4,1.4c2.4,0,4-1.5,4-3.9c0-2.1-0.7-3.5-3.5-5.3c-3.5-2.3-5.4-4.7-5.4-7.8
			c0-4.4,3.3-7.5,7.5-7.5c2.1,0,3.7,0.7,4.8,1.4l-1.1,3.3c-1.1-0.7-2.2-1.2-3.6-1.2c-2.3,0-3.5,1.7-3.5,3.5c0,1.8,0.7,2.9,3.4,4.7
			c3.1,2,5.6,4.5,5.6,8.3c0,5.4-3.7,8.1-8.2,8.1c-2,0-4.2-0.6-5.3-1.6L684.9,300z"/>
		<path class="st1" d="M703.6,304.9c-1.6,0-2.8-1.3-2.8-3.3c0-1.9,1.3-3.3,2.9-3.3c1.7,0,2.9,1.3,2.9,3.3
			C706.6,303.6,705.5,304.9,703.6,304.9L703.6,304.9z"/>
	</g>
</g>
</svg>
