<?xml version="1.0" encoding="utf-8"?>
<!-- Generator: Adobe Illustrator 19.0.0, SVG Export Plug-In . SVG Version: 6.00 Build 0)  -->
<svg version="1.1" id="Layer_1" xmlns="http://www.w3.org/2000/svg" xmlns:xlink="http://www.w3.org/1999/xlink" x="0px" y="0px"
	 viewBox="0 0 232.5 102.8" style="enable-background:new 0 0 232.5 102.8;" xml:space="preserve">
<style type="text/css">
	.st0{fill:#FFFFFF;}
	.st1{fill:#99B737;}
	.st2{fill:none;}
</style>
<g id="XMLID_18_">
	<g id="XMLID_79_">
		<g id="XMLID_102_">
			<path id="XMLID_103_" class="st0" d="M43.3,44.2h18.4v3.7h-14v11.3h12.9v3.6H47.7v15.4h-4.4V44.2z"/>
		</g>
		<g id="XMLID_98_">
			<path id="XMLID_99_" class="st0" d="M67.9,44.7c2.2-0.5,5.4-0.7,8.4-0.7c4.7,0,7.7,0.9,9.9,2.8c1.7,1.5,2.7,3.8,2.7,6.5
				c0,4.5-2.8,7.5-6.4,8.7v0.2c2.6,0.9,4.2,3.3,5,6.9c1.1,4.8,1.9,8,2.6,9.4h-4.6c-0.6-1-1.3-3.9-2.3-8.1c-1-4.7-2.8-6.5-6.8-6.6
				h-4.1v14.8h-4.4V44.7z M72.3,60.2h4.5c4.7,0,7.7-2.6,7.7-6.5c0-4.4-3.2-6.3-7.8-6.4c-2.1,0-3.6,0.2-4.4,0.4V60.2z"/>
		</g>
		<g id="XMLID_95_">
			<path id="XMLID_96_" class="st0" d="M99.6,44.2v34.1h-4.4V44.2H99.6z"/>
		</g>
		<g id="XMLID_92_">
			<path id="XMLID_93_" class="st0" d="M124.9,62.3h-13.3v12.3h14.8v3.7h-19.2V44.2h18.4v3.7h-14v10.8h13.3V62.3z"/>
		</g>
		<g id="XMLID_89_">
			<path id="XMLID_90_" class="st0" d="M131.5,72.9c2,1.2,4.9,2.2,7.9,2.2c4.5,0,7.1-2.4,7.1-5.8c0-3.2-1.8-5-6.4-6.8
				c-5.6-2-9-4.9-9-9.7c0-5.3,4.4-9.3,11-9.3c3.5,0,6,0.8,7.5,1.7l-1.2,3.6c-1.1-0.6-3.4-1.6-6.5-1.6c-4.7,0-6.4,2.8-6.4,5.1
				c0,3.2,2.1,4.8,6.8,6.6c5.8,2.2,8.7,5,8.7,10c0,5.3-3.9,9.8-11.9,9.8c-3.3,0-6.9-1-8.7-2.2L131.5,72.9z"/>
		</g>
		<g id="XMLID_86_">
			<path id="XMLID_87_" class="st0" d="M156.5,72.9c2,1.2,4.9,2.2,7.9,2.2c4.5,0,7.1-2.4,7.1-5.8c0-3.2-1.8-5-6.4-6.8
				c-5.6-2-9-4.9-9-9.7c0-5.3,4.4-9.3,11-9.3c3.5,0,6,0.8,7.5,1.7l-1.2,3.6c-1.1-0.6-3.4-1.6-6.5-1.6c-4.7,0-6.4,2.8-6.4,5.1
				c0,3.2,2.1,4.8,6.8,6.6c5.8,2.2,8.7,5,8.7,10c0,5.3-3.9,9.8-11.9,9.8c-3.3,0-6.9-1-8.7-2.2L156.5,72.9z"/>
		</g>
		<g id="XMLID_83_">
			<path id="XMLID_84_" class="st0" d="M199.7,62.3h-13.3v12.3h14.8v3.7H182V44.2h18.4v3.7h-14v10.8h13.3V62.3z"/>
		</g>
		<g id="XMLID_80_">
			<path id="XMLID_81_" class="st0" d="M206.9,78.3V44.2h4.8l10.9,17.3c2.5,4,4.5,7.6,6.1,11.1l0.1-0.1c-0.4-4.6-0.5-8.7-0.5-14
				V44.2h4.1v34.1h-4.5L217.2,61c-2.4-3.8-4.7-7.7-6.4-11.4l-0.2,0c0.3,4.3,0.4,8.4,0.4,14.1v14.6H206.9z"/>
		</g>
	</g>
	<g id="XMLID_75_">
		<path id="XMLID_76_" class="st1" d="M0,0v40.4h40.4V0H0z M33.3,33.3H7.1V7.1h26.2V33.3z"/>
	</g>
	<g id="XMLID_19_">
		<path id="XMLID_72_" class="st0" d="M107,87c0.6-0.1,1.2-0.2,2-0.2c1.1,0,2.1,0.3,2.7,0.9c0.6,0.6,0.9,1.5,0.9,2.6
			c0,1.1-0.3,1.9-0.8,2.5c-0.7,0.9-1.8,1.4-2.9,1.4c-0.2,0-0.4,0-0.6,0v5H107V87z M108.4,92.9c0.2,0,0.3,0,0.6,0
			c1.4,0,2.3-0.9,2.3-2.7c0-1.3-0.5-2.4-2.1-2.4c-0.3,0-0.6,0-0.8,0.1V92.9z"/>
		<path id="XMLID_69_" class="st0" d="M114.7,88.9c-0.5,0-0.8-0.4-0.8-0.9c0-0.5,0.4-0.9,0.8-0.9c0.5,0,0.8,0.4,0.8,0.9
			C115.6,88.6,115.3,88.9,114.7,88.9L114.7,88.9z M114.1,99.1v-8.9h1.4v8.9H114.1z"/>
		<path id="XMLID_67_" class="st0" d="M117.2,97.7c0.3,0.2,0.9,0.5,1.4,0.5c0.8,0,1.3-0.5,1.3-1.3c0-0.7-0.2-1.2-1.1-1.7
			c-1.2-0.8-1.8-1.5-1.8-2.5c0-1.4,1.1-2.5,2.4-2.5c0.7,0,1.2,0.2,1.6,0.5l-0.4,1.1c-0.3-0.2-0.7-0.4-1.2-0.4
			c-0.8,0-1.1,0.5-1.1,1.1c0,0.6,0.2,0.9,1.1,1.5c1,0.7,1.8,1.5,1.8,2.7c0,1.8-1.2,2.6-2.7,2.6c-0.6,0-1.4-0.2-1.7-0.5L117.2,97.7z"
			/>
		<path id="XMLID_64_" class="st0" d="M125.2,99.3c-1.6,0-2.9-1.4-2.9-4.6c0-3.2,1.4-4.6,3-4.6c1.6,0,2.9,1.5,2.9,4.6
			C128.2,98.1,126.6,99.3,125.2,99.3L125.2,99.3z M125.3,98.2c1.2,0,1.5-2.1,1.5-3.5c0-1.4-0.3-3.5-1.5-3.5c-1.3,0-1.5,2.1-1.5,3.5
			C123.8,96.2,124,98.2,125.3,98.2L125.3,98.2z"/>
		<path id="XMLID_62_" class="st0" d="M129.5,97.7c0.3,0.2,0.9,0.5,1.4,0.5c0.8,0,1.3-0.5,1.3-1.3c0-0.7-0.2-1.2-1.1-1.7
			c-1.2-0.8-1.8-1.5-1.8-2.5c0-1.4,1.1-2.5,2.4-2.5c0.7,0,1.2,0.2,1.6,0.5l-0.4,1.1c-0.3-0.2-0.7-0.4-1.2-0.4
			c-0.8,0-1.1,0.5-1.1,1.1c0,0.6,0.2,0.9,1.1,1.5c1,0.7,1.8,1.5,1.8,2.7c0,1.8-1.2,2.6-2.7,2.6c-0.6,0-1.4-0.2-1.7-0.5L129.5,97.7z"
			/>
		<path id="XMLID_60_" class="st0" d="M135.6,99.3c-0.5,0-0.9-0.4-0.9-1.1c0-0.6,0.4-1.1,0.9-1.1c0.5,0,0.9,0.4,0.9,1.1
			C136.6,98.9,136.2,99.3,135.6,99.3L135.6,99.3z"/>
		<path id="XMLID_56_" class="st0" d="M141.3,87c0.6-0.1,1.3-0.2,2.1-0.2c1.1,0,2.1,0.2,2.7,0.8c0.5,0.5,0.8,1.2,0.8,2.1
			c0,1.3-0.7,2.3-1.9,2.7v0.1c1.4,0.4,2.3,1.5,2.3,3.1c0,1-0.3,1.8-0.9,2.4c-0.7,0.8-1.8,1.1-3.3,1.1c-0.9,0-1.5-0.1-1.8-0.1V87z
			 M142.7,92.1h0.6c1.2,0,2.1-0.9,2.1-2.2c0-1.2-0.5-2-2-2c-0.3,0-0.6,0-0.8,0.1V92.1z M142.7,98c0.2,0,0.4,0.1,0.7,0.1
			c1.4,0,2.4-0.9,2.4-2.5c0-1.7-1.2-2.5-2.5-2.5h-0.6V98z"/>
		<path id="XMLID_53_" class="st0" d="M153.6,97.1c0,0.7,0,1.4,0.1,2h-1.3l-0.1-0.9h-0.1c-0.4,0.7-1,1.1-1.8,1.1
			c-1.2,0-2.1-1-2.1-2.5c0-2.2,1.8-3.2,3.8-3.2v-0.3c0-1.2-0.3-2-1.4-2c-0.5,0-1,0.2-1.5,0.5l-0.3-1c0.4-0.3,1.2-0.6,2.1-0.6
			c1.8,0,2.5,1.2,2.5,3.1V97.1z M152.2,94.6c-0.7,0-2.4,0.1-2.4,2.1c0,1.2,0.6,1.6,1.1,1.6c0.6,0,1.1-0.5,1.3-1.3
			c0-0.2,0.1-0.3,0.1-0.5V94.6z"/>
		<path id="XMLID_50_" class="st0" d="M155.6,92.6c0-1-0.1-1.6-0.1-2.3h1.2l0.1,1.1h0c0.4-0.7,1.1-1.2,2-1.2c1.2,0,2.1,0.9,2.1,3.1
			v5.9h-1.4v-5.7c0-1.1-0.2-2.1-1.2-2.1c-0.6,0-1.2,0.5-1.3,1.4c-0.1,0.2-0.1,0.5-0.1,0.8v5.6h-1.4V92.6z M156.4,88.9
			c0-1,0.4-1.7,1.1-1.7c0.4,0,0.6,0.2,0.9,0.3c0.3,0.1,0.5,0.3,0.7,0.3c0.3,0,0.4-0.1,0.5-0.7h0.7c0,1-0.4,1.6-1.2,1.6
			c-0.3,0-0.6-0.2-0.9-0.3c-0.3-0.1-0.5-0.3-0.7-0.3c-0.3,0-0.4,0.3-0.4,0.7H156.4z"/>
		<path id="XMLID_47_" class="st0" d="M165.5,99.3c-1.6,0-2.9-1.4-2.9-4.6c0-3.2,1.4-4.6,3-4.6c1.6,0,2.9,1.5,2.9,4.6
			C168.5,98.1,166.9,99.3,165.5,99.3L165.5,99.3z M165.6,98.2c1.2,0,1.5-2.1,1.5-3.5c0-1.4-0.3-3.5-1.5-3.5c-1.3,0-1.5,2.1-1.5,3.5
			C164,96.2,164.3,98.2,165.6,98.2L165.6,98.2z"/>
		<path id="XMLID_45_" class="st0" d="M169.8,97.7c0.3,0.2,0.9,0.5,1.4,0.5c0.8,0,1.3-0.5,1.3-1.3c0-0.7-0.2-1.2-1.1-1.7
			c-1.2-0.8-1.8-1.5-1.8-2.5c0-1.4,1.1-2.5,2.4-2.5c0.7,0,1.2,0.2,1.6,0.5l-0.4,1.1c-0.3-0.2-0.7-0.4-1.2-0.4
			c-0.8,0-1.1,0.5-1.1,1.1c0,0.6,0.2,0.9,1.1,1.5c1,0.7,1.8,1.5,1.8,2.7c0,1.8-1.2,2.6-2.7,2.6c-0.6,0-1.4-0.2-1.7-0.5L169.8,97.7z"
			/>
		<path id="XMLID_43_" class="st0" d="M175.9,99.3c-0.5,0-0.9-0.4-0.9-1.1c0-0.6,0.4-1.1,0.9-1.1c0.5,0,0.9,0.4,0.9,1.1
			C176.9,98.9,176.5,99.3,175.9,99.3L175.9,99.3z"/>
		<path id="XMLID_40_" class="st0" d="M183.1,95.5l-0.8,3.7h-1.4l2.8-12.3h1.6l2.7,12.3h-1.4l-0.8-3.7H183.1z M185.6,94.3l-0.6-3.1
			c-0.2-0.9-0.3-1.9-0.5-2.8h-0.1c-0.1,0.9-0.3,2-0.5,2.8l-0.6,3.1H185.6z"/>
		<path id="XMLID_38_" class="st0" d="M188.9,98.3l2.8-5.5c0.2-0.4,0.5-0.9,0.7-1.3v0h-3.2v-1.2h4.7v0.9l-2.8,5.4
			c-0.2,0.4-0.5,0.9-0.7,1.3v0h3.5v1.2h-5.1V98.3z"/>
		<path id="XMLID_36_" class="st0" d="M200.7,96.7c0,1,0.1,1.8,0.1,2.4h-1.2l-0.1-0.9h0c-0.3,0.4-0.9,1.1-1.9,1.1
			c-1.5,0-2.2-1.2-2.2-3.4v-5.6h1.4v5.4c0,1.4,0.2,2.4,1.2,2.4c0.8,0,1.2-0.8,1.3-1.2c0.1-0.2,0.1-0.5,0.1-0.8v-5.8h1.4V96.7z"/>
		<path id="XMLID_34_" class="st0" d="M202.7,86.5h1.4v12.7h-1.4V86.5z"/>
		<path id="XMLID_31_" class="st0" d="M207.1,94.8c0,2.7,1.1,3.3,2.1,3.3c0.6,0,1.1-0.1,1.5-0.3l0.2,1c-0.5,0.3-1.2,0.4-2,0.4
			c-2.1,0-3.2-1.7-3.2-4.4c0-2.9,1.2-4.7,3-4.7c1.8,0,2.5,1.9,2.5,3.9c0,0.3,0,0.6,0,0.8H207.1z M209.9,93.8c0-1.8-0.6-2.6-1.3-2.6
			c-0.9,0-1.4,1.4-1.4,2.6H209.9z"/>
		<path id="XMLID_28_" class="st0" d="M211.3,101.7c0.4-0.1,0.9-0.3,1.2-0.7c0.3-0.5,0.4-1.2,0.4-2.8v-7.9h1.4v8.3
			c0,1.9-0.3,2.7-0.9,3.4c-0.5,0.5-1.4,0.8-1.9,0.8L211.3,101.7z M213.6,88.9c-0.5,0-0.8-0.4-0.8-0.9c0-0.5,0.4-0.9,0.8-0.9
			c0.5,0,0.8,0.4,0.8,0.9C214.4,88.6,214.1,88.9,213.6,88.9L213.6,88.9z"/>
		<path id="XMLID_25_" class="st0" d="M218.7,99.3c-1.6,0-2.9-1.4-2.9-4.6c0-3.2,1.4-4.6,3-4.6c1.6,0,2.9,1.5,2.9,4.6
			C221.7,98.1,220.1,99.3,218.7,99.3L218.7,99.3z M218.8,98.2c1.2,0,1.5-2.1,1.5-3.5c0-1.4-0.3-3.5-1.5-3.5c-1.3,0-1.5,2.1-1.5,3.5
			C217.3,96.2,217.5,98.2,218.8,98.2L218.8,98.2z"/>
		<path id="XMLID_23_" class="st0" d="M223,97.7c0.3,0.2,0.9,0.5,1.4,0.5c0.8,0,1.3-0.5,1.3-1.3c0-0.7-0.2-1.2-1.1-1.7
			c-1.2-0.8-1.8-1.5-1.8-2.5c0-1.4,1.1-2.5,2.4-2.5c0.7,0,1.2,0.2,1.6,0.5l-0.4,1.1c-0.3-0.2-0.7-0.4-1.2-0.4
			c-0.7,0-1.1,0.5-1.1,1.1c0,0.6,0.2,0.9,1.1,1.5c1,0.7,1.8,1.5,1.8,2.7c0,1.8-1.2,2.6-2.7,2.6c-0.6,0-1.4-0.2-1.7-0.5L223,97.7z"/>
		<path id="XMLID_21_" class="st0" d="M229.1,99.3c-0.5,0-0.9-0.4-0.9-1.1c0-0.6,0.4-1.1,0.9-1.1c0.5,0,0.9,0.4,0.9,1.1
			C230.1,98.9,229.7,99.3,229.1,99.3L229.1,99.3z"/>
		<rect id="XMLID_17_" x="123.9" y="89.7" class="st2" width="0" height="4.2"/>
	</g>
</g>
</svg>
